<?xml version="1.0" standalone="no"?><!DOCTYPE svg PUBLIC "-//W3C//DTD SVG 1.1//EN" "http://www.w3.org/Graphics/SVG/1.1/DTD/svg11.dtd"><svg class="icon" width="200px" height="200.00px" viewBox="0 0 1024 1024" version="1.1" xmlns="http://www.w3.org/2000/svg"><path fill="#8a8a8a" d="M760.32 960.512h-496.64c-60.928 0-110.08-52.224-110.08-116.736V494.592c0-64 49.664-116.736 110.08-116.736h28.672c-3.072-14.336-4.608-29.696-4.608-45.056v-45.056c0-123.904 100.352-224.256 224.256-224.256 123.904 0 224.256 100.352 224.256 224.256V332.8c0 15.36-1.536 30.208-4.608 45.056h28.672c60.928 0 110.08 52.224 110.08 116.736v349.696c0.512 64-49.152 116.224-110.08 116.224z m-292.864-281.088v101.888c0 24.576 19.968 45.056 45.056 45.056s45.056-19.968 45.056-45.056v-101.888c27.136-15.36 45.568-44.032 45.568-77.312 0-49.664-40.448-89.6-90.624-89.6-50.176 0-90.624 39.936-90.624 89.6 0 33.28 18.432 61.952 45.568 77.312z m179.2-391.168c0-74.24-60.416-134.656-134.656-134.656S377.344 214.016 377.344 288.256v89.6h268.8V288.256z" /></svg>