<?xml version="1.0" standalone="no"?><!DOCTYPE svg PUBLIC "-//W3C//DTD SVG 1.1//EN" "http://www.w3.org/Graphics/SVG/1.1/DTD/svg11.dtd"><svg class="icon" width="200px" height="200.00px" viewBox="0 0 1024 1024" version="1.1" xmlns="http://www.w3.org/2000/svg"><path fill="#d81e06" d="M512 1024C229.2224 1024 0 794.7776 0 512S229.2224 0 512 0s512 229.2224 512 512-229.2224 512-512 512z m-33.7408-524.8H409.6a12.8 12.8 0 1 0 0 25.6h68.6592V588.8a12.8 12.8 0 0 0 25.6 0v-64H563.2a12.8 12.8 0 1 0 0-25.6h-59.3408V435.2a12.8 12.8 0 1 0-25.6 0v64zM729.6 358.4a12.8 12.8 0 0 0-12.8 12.8v281.6a12.8 12.8 0 1 0 25.6 0v-281.6a12.8 12.8 0 0 0-12.8-12.8z m51.2 25.6a12.8 12.8 0 0 0-12.8 12.8v230.4a12.8 12.8 0 1 0 25.6 0v-230.4a12.8 12.8 0 0 0-12.8-12.8zM307.2 332.8h358.4v358.4H307.2V332.8z m0-25.6a25.6 25.6 0 0 0-25.6 25.6v358.4a25.6 25.6 0 0 0 25.6 25.6h358.4a25.6 25.6 0 0 0 25.6-25.6V332.8a25.6 25.6 0 0 0-25.6-25.6H307.2z"  /></svg>