<?xml version="1.0" standalone="no"?><!DOCTYPE svg PUBLIC "-//W3C//DTD SVG 1.1//EN" "http://www.w3.org/Graphics/SVG/1.1/DTD/svg11.dtd"><svg class="icon" width="200px" height="200.00px" viewBox="0 0 1024 1024" version="1.1" xmlns="http://www.w3.org/2000/svg"><path fill="#8a8a8a" d="M512 518.826667c-51.2 0-95.573333-17.066667-133.12-54.613334s-58.026667-81.92-58.026667-133.12 20.48-95.573333 58.026667-136.533333C416.426667 157.013333 460.8 136.533333 512 136.533333s95.573333 20.48 133.12 58.026667 58.026667 85.333333 58.026667 136.533333-20.48 95.573333-58.026667 133.12-81.92 54.613333-133.12 54.613334z m245.76 126.293333c85.333333 34.133333 129.706667 81.92 129.706667 139.946667v68.266666c0 17.066667-13.653333 30.72-30.72 30.72H167.253333c-17.066667 0-30.72-13.653333-30.72-30.72v-68.266666c0-58.026667 44.373333-105.813333 129.706667-139.946667 85.333333-34.133333 167.253333-54.613333 245.76-54.613333 75.093333 3.413333 157.013333 20.48 245.76 54.613333z" /></svg>