<?xml version="1.0" standalone="no"?><!DOCTYPE svg PUBLIC "-//W3C//DTD SVG 1.1//EN" "http://www.w3.org/Graphics/SVG/1.1/DTD/svg11.dtd"><svg t="1558428741512" class="icon" style="" viewBox="0 0 1024 1024" version="1.1" xmlns="http://www.w3.org/2000/svg" p-id="3843" xmlns:xlink="http://www.w3.org/1999/xlink" width="200" height="200"><defs><style type="text/css"></style></defs><path d="M331.3445 368.515075c16.680914 52.794413 47.825238 96.360651 87.399559 123.601062l-5.678326 55.456033-26.708292 9.671267c2.218528 15.438621 7.985882 35.669384 15.084557 55.989175 5.678326 16.059767 12.155854 32.209586 18.456351 46.139853 6.92062 15.172561 13.487176 27.77253 18.456351 34.69315 1.863441 2.661619 3.548826 4.52506 4.880147 5.324262 3.371794 1.686409 8.074909 3.016707 13.487176 4.081968 5.590322 1.153266 11.889795 2.1295 18.456351 2.839675 6.211469 0.710175 12.510942 1.153266 18.456351 1.508353 6.92062 0.444115 13.221116 0.710175 18.456351 0.798179l5.412266 0.089028c3.371794 0 7.896854-0.089028 12.955056-0.26606 5.678326-0.26606 11.978822-0.621147 18.456351-1.153266 6.211469-0.444115 12.510942-1.065262 18.456351-1.952468 6.92062-0.976234 13.30912-2.218528 18.456351-3.726881 2.306532-0.710175 4.348028-1.419326 6.033413-2.218528 3.194762-2.218528 7.541767-10.292414 12.33391-21.828145 6.033413-14.196327 12.599969-33.717939 18.456351-53.859675 6.92062-23.690562 12.687974-48.180326 14.995529-66.370617l-26.708292-9.760295-5.590322-53.68162c41.081651-27.151383 73.380264-71.871911 90.327238-126.174678 6.566556-2.39556 14.640442-6.211469 18.278295-11.268648 6.743588-9.139148 8.428973-80.477916 0-93.25594-1.597381-2.573615-3.726881-3.992941-5.945409-4.880147-9.139148-123.157971-92.722798-219.695654-194.585767-219.695654-101.684914 0-185.268564 96.18362-194.496739 219.163535-3.105734 0.621147-5.945409 2.218528-7.985882 5.412266-8.340969 12.777001-6.743588 84.116793 0 93.25594C315.018673 362.126574 324.512908 366.207519 331.3445 368.515075z" p-id="3844"></path><path d="M360.803439 794.065144l-9.760295 0-9.760295 0-9.760295 0-9.760295 0-9.760295 0-9.760295 0-5.412266 0 0 62.820768-1.685385 0-1.774413 0-1.774413 0-1.774413 0-1.774413 0-1.774413 0-1.774413 0-1.774413 0-1.774413 0-1.774413 0-1.685385 0-1.774413 0-1.774413 0-1.774413 0-1.774413 0-1.774413 0 0-62.820768-5.412266 0-9.760295 0-9.760295 0-9.760295 0-9.760295 0-9.760295 0-9.760295 0 0-27.683503 9.760295 0 9.760295 0 9.760295 0 9.760295 0 9.760295 0 9.760295 0 5.412266 0L268.616854 703.648878l1.774413 0 1.774413 0 1.774413 0 1.774413 0 1.774413 0 1.685385 0 1.774413 0 1.774413 0 1.774413 0 1.774413 0 1.774413 0 1.774413 0 1.774413 0 1.774413 0 1.774413 0 1.685385 0 0 62.732763 5.412266 0 9.760295 0 9.760295 0 9.760295 0 9.760295 0 9.760295 0 9.760295 0L360.803439 794.065144zM931.161568 674.989141c-14.640442-19.875676-72.67009-36.911678-72.67009-36.911678l-200.530153-73.380264c-2.927679 17.835204-9.05012 44.808532-16.85897 71.250764-5.501294 18.633383-11.800767 36.911678-18.456351 51.55212-6.033413 13.398148-12.33391 23.779589-18.456351 28.570709-0.976234 0.710175-1.952468 1.419326-2.927679 1.863441-4.169973 2.040473-9.494235 3.726881-15.438621 5.146207-5.767354 1.331321-12.066827 2.39556-18.456351 3.194762-6.211469 0.887206-12.510942 1.419326-18.456351 1.952468-6.743588 0.444115-13.132088 0.798179-18.456351 0.976234l-2.040473 0.089028c0.26606 7.719822 0.621147 15.527648 1.065262 23.336498 2.306532 39.573297 6.388501 77.550237 11.357675 92.811826 0.710175 2.39556 1.508353 4.348028 2.306532 5.501294 2.306532 1.065262 5.412266 1.952468 8.962116 2.750647 3.460822 0.710175 7.275707 1.331321 11.357675 1.863441 3.637854 0.532119 7.453762 0.887206 11.268648 1.242294 3.814886 0.26606 7.630794 0.532119 11.268648 0.710175 4.081968 0.177032 7.985882 0.26606 11.357675 0.26606 3.371794 0 7.186679-0.089028 11.268648-0.26606 3.637854-0.177032 7.453762-0.444115 11.357675-0.710175 3.815909-0.355087 7.630794-0.710175 11.268648-1.242294 4.081968-0.532119 7.896854-1.153266 11.357675-1.863441 3.548826-0.798179 6.65456-1.685385 8.962116-2.750647 0.798179-1.153266 1.508353-3.105734 2.306532-5.412266 4.969175-15.172561 9.05012-53.149501 11.357675-92.722798l0.798179-15.971763-2.573615-0.887206c-1.597381-0.621147-3.105734-1.331321-4.52506-2.218528-1.685385-0.887206-3.194762-1.952468-4.614088-3.105734-1.685385-1.242294-3.194762-2.750647-4.614088-4.259-1.774413-1.952468-3.282766-4.081968-4.614088-6.388501-2.839675-5.146207-4.52506-11.091616-4.52506-17.391089s1.685385-12.155854 4.52506-17.302061c1.331321-2.306532 2.839675-4.437056 4.614088-6.388501 1.419326-1.508353 2.927679-3.016707 4.614088-4.348028 1.419326-1.064238 2.927679-2.1295 4.614088-3.016707 1.419326-0.887206 2.927679-1.597381 4.52506-2.218528 1.508353-0.621147 3.016707-1.065262 4.614088-1.508353 1.508353-0.355087 3.016707-0.621147 4.52506-0.887206 1.508353-0.177032 3.016707-0.26606 4.614088-0.26606 1.597381 0 3.105734 0.089028 4.614088 0.26606 1.508353 0.26606 3.016707 0.532119 4.52506 0.887206 1.597381 0.444115 3.105734 0.887206 4.614088 1.508353 1.597381 0.621147 3.105734 1.331321 4.614088 2.218528 1.597381 0.887206 3.105734 1.863441 4.52506 3.016707 1.685385 1.331321 3.194762 2.839675 4.614088 4.348028 1.774413 1.952468 3.282766 4.081968 4.614088 6.388501 2.927679 5.146207 4.52506 11.002588 4.52506 17.302061s-1.597381 12.244882-4.52506 17.391089c-1.331321 2.306532-2.839675 4.437056-4.614088 6.299473-1.419326 1.597381-2.927679 3.105734-4.614088 4.437056-1.419326 1.065262-2.927679 2.1295-4.52506 3.016707-1.508353 0.887206-3.016707 1.597381-4.614088 2.218528-1.242294 0.532119-2.484587 0.887206-3.726881 1.242294-1.774413 46.938032-5.412266 81.45415-10.736529 103.548354-3.194762 13.043061-6.92062 21.739117-11.268648 25.998117-0.887206 0.887206-1.863441 1.597381-2.750647 2.040473-2.484587 1.331321-5.412266 2.39556-8.607028 3.371794-3.460822 1.065262-7.275707 1.952468-11.268648 2.661619-3.726881 0.710175-7.541767 1.242294-11.357675 1.686409-3.815909 0.444115-7.630794 0.887206-11.268648 1.153266-4.081968 0.26606-7.985882 0.532119-11.357675 0.621147-4.348028 0.177032-7.985882 0.26606-10.204409 0.26606l-1.065262 0.089028-1.064238-0.089028c-2.218528 0-5.856381-0.089028-10.292414-0.26606-3.371794-0.089028-7.186679-0.355087-11.268648-0.621147-3.637854-0.355087-7.453762-0.710175-11.268648-1.153266-3.814886-0.444115-7.630794-0.976234-11.357675-1.686409-3.992941-0.710175-7.807826-1.597381-11.268648-2.661619-3.194762-0.976234-6.122441-2.040473-8.607028-3.371794-0.887206-0.444115-1.863441-1.153266-2.750647-2.040473-4.348028-4.259-8.074909-13.043061-11.268648-26.087145-5.590322-23.24747-9.31618-60.514235-11.002588-111.356181-3.903913-0.089028-8.518001-0.26606-13.576203-0.621147-5.767354-0.355087-12.066827-0.798179-18.456351-1.508353-6.211469-0.621147-12.510942-1.419326-18.456351-2.573615-6.743588-1.242294-13.132088-2.750647-18.367323-4.703115-1.685385-0.621147-3.194762-1.242294-4.614088-1.952468-4.169973-2.040473-8.873088-7.098675-13.842263-14.19735-5.945409-8.695033-12.244882-20.407796-18.456351-33.628912-6.566556-14.108323-12.866029-29.991058-18.367323-45.695738-7.807826-21.916149-13.930267-43.566238-16.85897-59.715033l-200.708208 73.380264c0 0-58.029648 17.036002-72.67009 36.911678-14.640442 19.875676-41.259706 268.675182-22.448268 268.675182l440.368566 0 2.39556 0 440.45657 0C972.421274 943.664324 945.80201 694.864818 931.161568 674.989141z" p-id="3845"></path></svg>